<svg xmlns="http://www.w3.org/2000/svg" viewBox="0 0 163.47 167.99"><path d="M155.69 72.86a68.15 68.15 0 0 1-4.86 26.07 54.29 54.29 0 0 1-9.23 15.21 44.73 44.73 0 0 1-27.34 15.17 49.82 49.82 0 0 1-19.54-.22 33.3 33.3 0 0 1-11.89-5.18 40.08 40.08 0 0 1-6.47-5.42 37 37 0 0 1-5.47-7.44 40 40 0 0 1-5.11-19.73c0-7.44 2.54-14.07 6.56-20.21a121.31 121.31 0 0 1 11.14-13.92c3.36-3.79 6.71-7.59 9.72-11.65 6.79-9.16 11.65-19.22 13.42-30.61A84.56 84.56 0 0 0 107.6.8c0-.25-.16-.54.1-.73s.48 0 .7.17a118.34 118.34 0 0 1 18.3 13.13 79.12 79.12 0 0 1 6.92 6.63 90.69 90.69 0 0 1 11.3 14.84 81.67 81.67 0 0 1 5 9.8 72.61 72.61 0 0 1 5.35 20.6 74 74 0 0 1 .42 7.62z" fill="#f7991f"/><path d="M44.83 160.4a47.63 47.63 0 0 1-8-4.25 73.65 73.65 0 0 1-14.56-11.77 78.47 78.47 0 0 1-17.32-28A82.27 82.27 0 0 1 .27 81.55 79.46 79.46 0 0 1 5.85 58a76.26 76.26 0 0 1 17.74-26.46 87.84 87.84 0 0 1 20.15-14.3 134.58 134.58 0 0 1 33-12.16 140.54 140.54 0 0 1 20.6-3.28c.82-.06 1.64-.12 2.45-.21.65-.08.91.13 1 .82a41.49 41.49 0 0 1-3.31 20.72C94.2 30.65 89.31 37.05 83.84 43a147 147 0 0 1-13 12.55C68.35 57.72 66 60 63.51 62.11c-5.14 4.21-9.94 8.79-14.82 13.28a137.24 137.24 0 0 0-9.64 10.23 79.23 79.23 0 0 0-9.68 13.84 43.92 43.92 0 0 0-4.6 13.72 51.12 51.12 0 0 0-.25 17 41.67 41.67 0 0 0 2.65 9.36 44.2 44.2 0 0 0 16.16 19.7l1.17.85c.12.1.22.21.33.31zm32.53-145l-.07-.19a3.19 3.19 0 0 0-.54 0A117.72 117.72 0 0 0 46 26.83c-9.53 5.36-17.91 12.11-24.42 21a56.74 56.74 0 0 0-7.27 12c-1.64 4.17-3.52 8.1-4.53 12.46A102.07 102.07 0 0 0 7 90.92a124.68 124.68 0 0 0 1.2 23.17c.25 1.76.58 3.5.87 5.25a1.13 1.13 0 0 0 .24-.78 86.48 86.48 0 0 1 1.42-21.9 91.63 91.63 0 0 1 12.67-32 123.84 123.84 0 0 1 20.91-24.85 185.29 185.29 0 0 1 25.34-19.55c2.55-1.65 5.14-3.26 7.71-4.88z" fill="#82bb43"/><path d="M129.8 150.28a48.49 48.49 0 0 1-7.66 5.28 83.46 83.46 0 0 1-28.95 11.31c-12.23 2.24-24.09 1.25-35.44-4.11a53.66 53.66 0 0 1-9.27-5.76 41.21 41.21 0 0 1-11.84-13.88A38.76 38.76 0 0 1 32.43 129c-1.28-11.62 2.74-21.58 9.52-30.68a99.14 99.14 0 0 1 16.13-16.5 5.36 5.36 0 0 1 .75-.46c-.43 2.15-.9 4.16-1.21 6.2-2.46 16 1.42 30 13.39 41.31a45.28 45.28 0 0 0 14.81 9.19 41.75 41.75 0 0 0 18.37 3 75.91 75.91 0 0 0 21.43-4.58 53.67 53.67 0 0 0 21-13.8 52.53 52.53 0 0 0 11.38-19.9c3.22-10 3.8-20.23 3.4-30.59 0-.34-.08-.66-.14-1.14.58.5.46 1.09.55 1.59a84.64 84.64 0 0 1 1.44 23.12 63 63 0 0 1-9.66 29.64 59.52 59.52 0 0 1-11.67 13.54 87.77 87.77 0 0 1-11.74 8.25 70.48 70.48 0 0 1-16.68 7.09 47.56 47.56 0 0 1-19.89 1.45A58.87 58.87 0 0 1 73 149.12a43.06 43.06 0 0 1-17.35-16.89c-4.63-8.3-6.11-17.23-5.87-26.57v-1a2.39 2.39 0 0 0-.07-.42 3.59 3.59 0 0 0-.8 1.8 49.2 49.2 0 0 0-1.6 21.66c2.42 14.28 10.14 24.66 23.47 30.6 9.07 4 18.61 4.64 28.35 3.27 9-1.26 17.42-4.43 25.52-8.46 1.76-.87 3.44-1.88 5.15-2.83z" fill="#82bb43"/></svg>